<svg id="Capa_1" data-name="Capa 1" xmlns="http://www.w3.org/2000/svg" viewBox="0 0 538.72 512"><defs><style>.cls-1{fill:#006ec2;}</style></defs><path class="cls-1" d="M268.51,125.23a131,131,0,1,0,131,131A130.82,130.82,0,0,0,268.51,125.23Zm0,216.21a85.19,85.19,0,1,1,85.19-85.18,85.33,85.33,0,0,1-85.19,85.18Zm167-221.57A30.56,30.56,0,1,1,404.9,89.31,30.49,30.49,0,0,1,435.46,119.87Zm86.78,31C520.31,110,511,73.69,481,43.81S414.82,4.58,373.88,2.53C331.69.13,205.22.13,163,2.53,122.2,4.46,85.94,13.82,56,43.69S16.72,109.83,14.66,150.77c-2.39,42.2-2.39,168.67,0,210.86C16.6,402.57,26,438.83,56,468.71S122.09,507.94,163,510c42.19,2.4,168.66,2.4,210.85,0,40.94-1.94,77.21-11.29,107.08-41.28s39.23-66.14,41.28-107.08c2.4-42.19,2.4-168.55,0-210.74Zm-54.51,256a86.22,86.22,0,0,1-48.58,48.58c-33.64,13.34-113.46,10.27-150.64,10.27s-117.11,3-150.64-10.27A86.22,86.22,0,0,1,69.29,406.9C56,373.26,59,293.43,59,256.26s-3-117.12,10.27-150.64A86.16,86.16,0,0,1,117.87,57c33.64-13.35,113.47-10.27,150.64-10.27s117.12-3,150.64,10.27a86.16,86.16,0,0,1,48.58,48.58C481.08,139.26,478,219.08,478,256.26S481.08,373.38,467.73,406.9Z"/></svg>