<svg id="Capa_1" data-name="Capa 1" xmlns="http://www.w3.org/2000/svg" xmlns:xlink="http://www.w3.org/1999/xlink" viewBox="0 0 151.52 89.92"><defs><style>.cls-1{fill:none;}.cls-2{fill:#4d4d4d;}.cls-3{clip-path:url(#clip-path);}.cls-4{fill:#20659e;}.cls-5{fill:#21669f;}.cls-6{fill:#2167a0;}.cls-7{fill:#2267a0;}.cls-8{fill:#2268a1;}.cls-9{fill:#2368a1;}.cls-10{fill:#2369a2;}.cls-11{fill:#246aa3;}.cls-12{fill:#256ba3;}.cls-13{fill:#256ba4;}.cls-14{fill:#266ca5;}.cls-15{fill:#276da6;}.cls-16{fill:#276ea6;}.cls-17{fill:#286fa7;}.cls-18{fill:#2970a8;}.cls-19{fill:#2970a9;}.cls-20{fill:#2a71aa;}.cls-21{fill:#2b72ab;}.cls-22{fill:#2c73ab;}.cls-23{fill:#2d74ac;}.cls-24{fill:#2d75ad;}.cls-25{fill:#2e76ae;}.cls-26{fill:#2f77af;}.cls-27{clip-path:url(#clip-path-2);}.cls-28{fill:#3078b0;}.cls-29{fill:#3179b1;}.cls-30{fill:#327ab2;}.cls-31{fill:#337bb3;}.cls-32{fill:#337cb4;}.cls-33{fill:#347db5;}.cls-34{fill:#357fb6;}.cls-35{fill:#3680b7;}.cls-36{fill:#3781b8;}.cls-37{fill:#3882b9;}.cls-38{fill:#3983bb;}.cls-39{fill:#3a84bc;}.cls-40{fill:#3b85bd;}.cls-41{fill:#3c87be;}.cls-42{fill:#3d88bf;}.cls-43{fill:#3e89c0;}.cls-44{fill:#3f8ac1;}.cls-45{fill:#408bc2;}.cls-46{fill:#418dc4;}.cls-47{fill:#428ec5;}.cls-48{fill:#438fc6;}.cls-49{fill:#4490c7;}.cls-50{fill:#4592c8;}.cls-51{fill:#4693c9;}.cls-52{fill:#4794cb;}.cls-53{fill:#4895cc;}.cls-54{fill:#4997cd;}.cls-55{fill:#4a98ce;}.cls-56{fill:#4b99d0;}.cls-57{fill:#4d9bd1;}.cls-58{fill:#4e9cd2;}.cls-59{fill:#4f9dd3;}.cls-60{fill:#509fd5;}.cls-61{fill:#51a0d6;}.cls-62{fill:#52a1d6;}.cls-63{fill:#53a1d7;}.cls-64{fill:#54a2d7;}.cls-65{fill:#55a3d8;}.cls-66{fill:#56a3d8;}.cls-67{fill:#57a4d9;}.cls-68{fill:#58a5d9;}.cls-69{fill:#59a6da;}.cls-70{fill:#5aa6da;}.cls-71{fill:#5ba7db;}.cls-72{fill:#5ca8db;}.cls-73{fill:#5da8dc;}.cls-74{fill:#5ea9dc;}.cls-75{fill:#5faadc;}.cls-76{fill:#60aadd;}.cls-77{fill:#61abdd;}.cls-78{fill:#62acde;}.cls-79{fill:#63acde;}.cls-80{fill:#64addf;}.cls-81{fill:#65aedf;}.cls-82{fill:#66aee0;}.cls-83{fill:#67afe0;}.cls-84{fill:#68b0e1;}.cls-85{fill:#69b1e1;}.cls-86{fill:#6ab1e1;}.cls-87{fill:#6bb2e2;}.cls-88{fill:#6cb3e2;}.cls-89{fill:#6db3e3;}.cls-90{fill:#6eb4e3;}.cls-91{fill:#6fb5e4;}.cls-92{fill:#71b5e4;}.cls-93{fill:#72b6e5;}.cls-94{fill:#73b7e5;}.cls-95{clip-path:url(#clip-path-3);}.cls-96{fill:#83c2ec;}.cls-97{fill:#84c2ed;}.cls-98{fill:#85c3ed;}.cls-99{fill:#86c4ee;}.cls-100{fill:#87c4ee;}.cls-101{fill:#88c5ef;}.cls-102{fill:#89c6ef;}.cls-103{fill:#8ac7f0;}.cls-104{fill:#8bc7f0;}.cls-105{fill:#8cc8f1;}.cls-106{fill:#8dc9f1;}.cls-107{fill:#8ec9f2;}.cls-108{fill:#8fcaf2;}.cls-109{fill:#79bbe8;}.cls-110{fill:#7abce8;}.cls-111{fill:#7bbce9;}.cls-112{fill:#7cbde9;}.cls-113{fill:#7dbeea;}.cls-114{fill:#7ebeea;}.cls-115{fill:#7fbfeb;}.cls-116{fill:#80c0eb;}.cls-117{fill:#81c0ec;}.cls-118{fill:#82c1ec;}.cls-119{fill:#1aaf54;}.cls-120{fill:#0f72bd;}.cls-121{fill:#fc0f1b;}</style><clipPath id="clip-path"><path class="cls-1" d="M43.2,43.58V23.84h4.41V39.66H56v3.92Z"/></clipPath><clipPath id="clip-path-2"><path class="cls-1" d="M64,35.19,67.5,23.84h4.6l3.47,11.35L79.5,23.84h4.77L77.38,43.58H74.11L69.78,29.85,65.49,43.58H62.21L55.32,23.84H60.1Z"/></clipPath><clipPath id="clip-path-3"><path class="cls-1" d="M101.7,26.42a9.23,9.23,0,0,1,2.83,7.19,9.7,9.7,0,0,1-2.76,7.29q-2.74,2.68-8.4,2.68H86.62V23.84h7Q98.88,23.84,101.7,26.42ZM98.47,38.16a5.82,5.82,0,0,0,1.62-4.44,5.92,5.92,0,0,0-1.62-4.47,6.93,6.93,0,0,0-5-1.57H91v12h2.79A6.51,6.51,0,0,0,98.47,38.16Z"/></clipPath></defs><path class="cls-2" d="M9.11,62.7H6.52V64H8.84v.72H6.52V66H9.19v.72H5.72V62H9.11Z"/><path class="cls-2" d="M12.28,66.73v-.44a1.42,1.42,0,0,1-1.19.47,1.31,1.31,0,0,1-.92-.31,1.05,1.05,0,0,1-.35-.81.94.94,0,0,1,.36-.78,1.54,1.54,0,0,1,1-.3h1.09v-.11a.67.67,0,0,0-.22-.53.94.94,0,0,0-.64-.19,1.93,1.93,0,0,0-1.07.36L10,63.55a4,4,0,0,1,.75-.35,2.71,2.71,0,0,1,.81-.1,1.59,1.59,0,0,1,1.07.33,1.21,1.21,0,0,1,.38.93v2.37Zm-1-.58A1.26,1.26,0,0,0,12,66a.69.69,0,0,0,.32-.49v-.33h-1a1.12,1.12,0,0,0-.56.11.41.41,0,0,0-.18.37.48.48,0,0,0,.18.39A.81.81,0,0,0,11.25,66.15Z"/><path class="cls-2" d="M14.87,63.12v.72a1.29,1.29,0,0,1,1.25-.74v.74a1.24,1.24,0,0,0-.87.25,1.14,1.14,0,0,0-.38.75v1.89h-.78V63.12Z"/><path class="cls-2" d="M18.61,65.9l.2.6a1.71,1.71,0,0,1-.89.26,1,1,0,0,1-.73-.26,1,1,0,0,1-.28-.79V63.84H16.4v-.58h.51v-1h.77v1h1.07v.58H17.68v1.73a.54.54,0,0,0,.1.38.37.37,0,0,0,.29.11A1.27,1.27,0,0,0,18.61,65.9Z"/><path class="cls-2" d="M21.67,63.1a1.3,1.3,0,0,1,1,.37,1.38,1.38,0,0,1,.36,1v2.24h-.78v-2a.8.8,0,0,0-.87-.87.94.94,0,0,0-.75.32,1.15,1.15,0,0,0-.28.8v1.78h-.78v-5h.78v2.13A1.36,1.36,0,0,1,21.67,63.1Z"/><path class="cls-2" d="M28,66.73v-.44a1.43,1.43,0,0,1-1.19.47,1.3,1.3,0,0,1-.92-.31,1.05,1.05,0,0,1-.35-.81.94.94,0,0,1,.36-.78,1.51,1.51,0,0,1,1-.3H28v-.11a.65.65,0,0,0-.23-.53.92.92,0,0,0-.64-.19,1.93,1.93,0,0,0-1.06.36l-.32-.54a4,4,0,0,1,.74-.35,2.71,2.71,0,0,1,.81-.1,1.57,1.57,0,0,1,1.07.33,1.18,1.18,0,0,1,.39.93v2.37Zm-1-.58a1.2,1.2,0,0,0,.7-.2.71.71,0,0,0,.33-.49v-.33H27a1.17,1.17,0,0,0-.57.11.41.41,0,0,0-.18.37.49.49,0,0,0,.19.39A.78.78,0,0,0,26.94,66.15Z"/><path class="cls-2" d="M31.89,63.1a1.3,1.3,0,0,1,1,.37,1.42,1.42,0,0,1,.35,1v2.24h-.78v-2a.8.8,0,0,0-.86-.87,1,1,0,0,0-.71.28,1.07,1.07,0,0,0-.32.7v1.92h-.78V63.12h.78v.69A1.37,1.37,0,0,1,31.89,63.1Z"/><path class="cls-2" d="M37.71,61.7v5h-.78v-.62a1.36,1.36,0,0,1-1.26.65,1.61,1.61,0,0,1-1.25-.51,2.1,2.1,0,0,1,0-2.66,1.65,1.65,0,0,1,1.24-.5,1.4,1.4,0,0,1,1.28.66v-2ZM35,65.78a1,1,0,0,0,.8.33,1.06,1.06,0,0,0,.8-.33,1.34,1.34,0,0,0,0-1.69,1,1,0,0,0-.8-.34,1,1,0,0,0-.8.34,1.31,1.31,0,0,0,0,1.69Z"/><path class="cls-2" d="M42.26,62a2.94,2.94,0,0,1,1.66.49l-.34.7a2.69,2.69,0,0,0-1.39-.44,1.13,1.13,0,0,0-.56.13.42.42,0,0,0-.21.37.53.53,0,0,0,.19.4,1.37,1.37,0,0,0,.48.25c.19,0,.39.11.61.19s.43.16.62.25a1.12,1.12,0,0,1,.47.42,1.21,1.21,0,0,1,.19.68,1.17,1.17,0,0,1-.5,1,2.08,2.08,0,0,1-1.29.38,2.73,2.73,0,0,1-1-.21,2.78,2.78,0,0,1-.89-.55l.34-.69a2.81,2.81,0,0,0,.79.51,2.14,2.14,0,0,0,.82.18,1.24,1.24,0,0,0,.66-.15.48.48,0,0,0,.23-.42A.52.52,0,0,0,42.9,65a1.32,1.32,0,0,0-.47-.25c-.19,0-.4-.11-.62-.19s-.43-.15-.62-.23a1.09,1.09,0,0,1-.47-.41,1.13,1.13,0,0,1-.19-.67,1.16,1.16,0,0,1,.47-1A2,2,0,0,1,42.26,62Z"/><path class="cls-2" d="M46.94,63.1a1.61,1.61,0,0,1,1.24.51,2.09,2.09,0,0,1,0,2.65,1.62,1.62,0,0,1-1.24.5,1.39,1.39,0,0,1-1.27-.65V68H44.9V63.12h.78v.63A1.37,1.37,0,0,1,46.94,63.1ZM46,65.76a1,1,0,0,0,.79.33,1,1,0,0,0,.79-.33,1.22,1.22,0,0,0,.31-.85,1.17,1.17,0,0,0-.31-.83,1,1,0,0,0-.79-.33,1,1,0,0,0-.79.33,1.12,1.12,0,0,0-.31.83A1.17,1.17,0,0,0,46,65.76Z"/><path class="cls-2" d="M51.64,66.73v-.44a1.45,1.45,0,0,1-1.2.47,1.31,1.31,0,0,1-.92-.31,1,1,0,0,1-.34-.81.94.94,0,0,1,.36-.78,1.51,1.51,0,0,1,1-.3h1.09v-.11a.64.64,0,0,0-.22-.53.94.94,0,0,0-.64-.19,1.9,1.9,0,0,0-1.06.36l-.32-.54a3.71,3.71,0,0,1,.74-.35,2.71,2.71,0,0,1,.81-.1,1.57,1.57,0,0,1,1.07.33,1.25,1.25,0,0,1,.39.93v2.37Zm-1-.58a1.23,1.23,0,0,0,.7-.2.66.66,0,0,0,.32-.49v-.33h-1a1.17,1.17,0,0,0-.57.11.41.41,0,0,0-.18.37.47.47,0,0,0,.19.39A.78.78,0,0,0,50.61,66.15Z"/><path class="cls-2" d="M54.93,63.1a1.86,1.86,0,0,1,1.49.59l-.43.5a1.36,1.36,0,0,0-1-.41,1,1,0,0,0-.77.32,1.18,1.18,0,0,0-.3.83,1.16,1.16,0,0,0,.3.83,1,1,0,0,0,.77.33A1.31,1.31,0,0,0,56,65.65l.44.44a1.82,1.82,0,0,1-1.53.67,1.73,1.73,0,0,1-1.82-1.83,1.84,1.84,0,0,1,.5-1.33A1.82,1.82,0,0,1,54.93,63.1Z"/><path class="cls-2" d="M58.61,63.1a1.56,1.56,0,0,1,1.35.56,2.25,2.25,0,0,1,.34,1.56H57.58a1.14,1.14,0,0,0,.39.67,1.12,1.12,0,0,0,.72.24,1.36,1.36,0,0,0,1-.42l.42.44a2,2,0,0,1-1.5.61,1.83,1.83,0,1,1,0-3.66Zm-1,1.56h2.06a1,1,0,0,0-.29-.69,1,1,0,0,0-.71-.25,1,1,0,0,0-.71.25A1.15,1.15,0,0,0,57.56,64.66Z"/><path class="cls-2" d="M64.47,62a2.89,2.89,0,0,1,1.66.49l-.33.7a2.72,2.72,0,0,0-1.39-.44,1.14,1.14,0,0,0-.57.13.43.43,0,0,0-.2.37.5.5,0,0,0,.19.4,1.24,1.24,0,0,0,.47.25c.19,0,.4.11.62.19s.43.16.62.25a1.18,1.18,0,0,1,.47.42,1.21,1.21,0,0,1,.18.68,1.15,1.15,0,0,1-.5,1,2.08,2.08,0,0,1-1.29.38,2.73,2.73,0,0,1-1.05-.21,2.89,2.89,0,0,1-.89-.55l.35-.69a2.67,2.67,0,0,0,.79.51,2.14,2.14,0,0,0,.82.18,1.2,1.2,0,0,0,.65-.15.46.46,0,0,0,.23-.42.54.54,0,0,0-.18-.41,1.37,1.37,0,0,0-.48-.25L64,64.58c-.22-.07-.42-.15-.61-.23a1.18,1.18,0,0,1-.48-.41,1.2,1.2,0,0,1-.19-.67,1.14,1.14,0,0,1,.48-1A2,2,0,0,1,64.47,62Z"/><path class="cls-2" d="M68.56,63.1a1.85,1.85,0,0,1,1.49.59l-.43.5a1.36,1.36,0,0,0-1-.41,1,1,0,0,0-.77.32,1.18,1.18,0,0,0-.3.83,1.16,1.16,0,0,0,.3.83,1,1,0,0,0,.77.33,1.34,1.34,0,0,0,1.07-.44l.43.44a1.82,1.82,0,0,1-1.53.67,1.75,1.75,0,0,1-1.31-.51,1.77,1.77,0,0,1-.51-1.32,1.81,1.81,0,0,1,.51-1.33A1.78,1.78,0,0,1,68.56,63.1Z"/><path class="cls-2" d="M71,61.75a.41.41,0,0,1,.32-.13.44.44,0,0,1,.33.13.54.54,0,0,1,0,.68.44.44,0,0,1-.33.13.41.41,0,0,1-.32-.13.51.51,0,0,1,0-.68Zm.71,5H70.9V63.12h.78Z"/><path class="cls-2" d="M74.31,63.1a1.56,1.56,0,0,1,1.35.56A2.25,2.25,0,0,1,76,65.22H73.28a1.14,1.14,0,0,0,.39.67,1.13,1.13,0,0,0,.73.24,1.35,1.35,0,0,0,1-.42l.42.44a1.94,1.94,0,0,1-1.49.61,1.83,1.83,0,1,1,0-3.66Zm-1,1.56h2.06A1,1,0,0,0,75,64a1,1,0,0,0-.71-.25,1,1,0,0,0-.71.25A1.2,1.2,0,0,0,73.26,64.66Z"/><path class="cls-2" d="M78.92,63.1a1.29,1.29,0,0,1,1,.37,1.38,1.38,0,0,1,.36,1v2.24h-.78v-2a.8.8,0,0,0-.87-.87,1,1,0,0,0-.71.28,1.06,1.06,0,0,0-.31.7v1.92h-.78V63.12h.78v.69A1.35,1.35,0,0,1,78.92,63.1Z"/><path class="cls-2" d="M82.79,63.1a1.85,1.85,0,0,1,1.49.59l-.43.5a1.36,1.36,0,0,0-1-.41,1,1,0,0,0-.77.32,1.18,1.18,0,0,0-.3.83,1.16,1.16,0,0,0,.3.83,1,1,0,0,0,.77.33,1.34,1.34,0,0,0,1.07-.44l.43.44a1.82,1.82,0,0,1-1.53.67,1.75,1.75,0,0,1-1.31-.51A1.77,1.77,0,0,1,81,64.93a1.81,1.81,0,0,1,.51-1.33A1.78,1.78,0,0,1,82.79,63.1Z"/><path class="cls-2" d="M86.48,63.1a1.54,1.54,0,0,1,1.34.56,2.25,2.25,0,0,1,.34,1.56H85.44a1.14,1.14,0,0,0,.39.67,1.13,1.13,0,0,0,.73.24,1.34,1.34,0,0,0,1-.42l.42.44a1.94,1.94,0,0,1-1.49.61,1.83,1.83,0,1,1,0-3.66Zm-1,1.56h2.06A1,1,0,0,0,87.2,64a1.15,1.15,0,0,0-1.43,0A1.14,1.14,0,0,0,85.43,64.66Z"/><path class="cls-2" d="M92.89,66.73v-.44a1.44,1.44,0,0,1-1.19.47,1.34,1.34,0,0,1-.93-.31,1,1,0,0,1-.34-.81.94.94,0,0,1,.36-.78,1.51,1.51,0,0,1,1-.3h1.09v-.11a.64.64,0,0,0-.22-.53.92.92,0,0,0-.64-.19,1.9,1.9,0,0,0-1.06.36l-.32-.54a3.71,3.71,0,0,1,.74-.35,2.71,2.71,0,0,1,.81-.1,1.57,1.57,0,0,1,1.07.33,1.21,1.21,0,0,1,.39.93v2.37Zm-1-.58a1.23,1.23,0,0,0,.7-.2.66.66,0,0,0,.32-.49v-.33h-1a1.17,1.17,0,0,0-.57.11.41.41,0,0,0-.18.37.47.47,0,0,0,.19.39A.78.78,0,0,0,91.86,66.15Z"/><path class="cls-2" d="M96.81,63.1a1.3,1.3,0,0,1,1,.37,1.42,1.42,0,0,1,.35,1v2.24h-.78v-2a.9.9,0,0,0-.23-.64.88.88,0,0,0-.64-.23,1,1,0,0,0-.71.28,1.11,1.11,0,0,0-.31.7v1.92H94.7V63.12h.78v.69A1.37,1.37,0,0,1,96.81,63.1Z"/><path class="cls-2" d="M102.63,61.7v5h-.78v-.62a1.36,1.36,0,0,1-1.27.65,1.64,1.64,0,0,1-1.25-.51,1.88,1.88,0,0,1-.47-1.34,1.84,1.84,0,0,1,.47-1.32,1.65,1.65,0,0,1,1.24-.5,1.4,1.4,0,0,1,1.28.66v-2ZM100,65.78a1,1,0,0,0,.8.33,1,1,0,0,0,.79-.33,1.31,1.31,0,0,0,0-1.69,1,1,0,0,0-.79-.34,1,1,0,0,0-.8.34,1.31,1.31,0,0,0,0,1.69Z"/><path class="cls-2" d="M109,62.7h-2.59V64h2.32v.72h-2.32V66h2.68v.72h-3.48V62H109Z"/><path class="cls-2" d="M112.12,63.1a1.3,1.3,0,0,1,1,.37,1.38,1.38,0,0,1,.35,1v2.24h-.77v-2a.81.81,0,0,0-.87-.87,1,1,0,0,0-.71.28,1.12,1.12,0,0,0-.32.7v1.92H110V63.12h.78v.69A1.37,1.37,0,0,1,112.12,63.1Z"/><path class="cls-2" d="M117.76,63.12v3.26a1.58,1.58,0,0,1-.51,1.23,2,2,0,0,1-1.36.45,2.61,2.61,0,0,1-1.5-.47l.34-.56a1.87,1.87,0,0,0,1.13.39,1.15,1.15,0,0,0,.82-.28.92.92,0,0,0,.31-.74v-.46a1.29,1.29,0,0,1-1.19.61,1.54,1.54,0,0,1-1.18-.48,2,2,0,0,1,0-2.5,1.52,1.52,0,0,1,1.16-.47,1.3,1.3,0,0,1,1.22.61v-.59ZM116,65.94a1,1,0,0,0,.75-.31,1.14,1.14,0,0,0,.29-.8,1.16,1.16,0,0,0-.29-.8,1,1,0,0,0-.75-.3,1,1,0,0,0-.75.3,1.21,1.21,0,0,0-.3.8,1.15,1.15,0,0,0,.3.8A1,1,0,0,0,116,65.94Z"/><path class="cls-2" d="M118.91,61.75a.41.41,0,0,1,.32-.13.43.43,0,0,1,.33.13.51.51,0,0,1,0,.68.43.43,0,0,1-.33.13.41.41,0,0,1-.32-.13.51.51,0,0,1,0-.68Zm.71,5h-.77V63.12h.77Z"/><path class="cls-2" d="M122.88,63.1a1.3,1.3,0,0,1,1,.37,1.42,1.42,0,0,1,.35,1v2.24h-.78v-2a.8.8,0,0,0-.86-.87,1,1,0,0,0-.71.28,1.07,1.07,0,0,0-.32.7v1.92h-.78V63.12h.78v.69A1.37,1.37,0,0,1,122.88,63.1Z"/><path class="cls-2" d="M126.75,63.1a1.56,1.56,0,0,1,1.35.56,2.25,2.25,0,0,1,.34,1.56h-2.72a1.14,1.14,0,0,0,.39.67,1.12,1.12,0,0,0,.72.24,1.36,1.36,0,0,0,1-.42l.41.44a1.93,1.93,0,0,1-1.49.61,1.73,1.73,0,0,1-1.84-1.83,1.79,1.79,0,0,1,.51-1.32A1.76,1.76,0,0,1,126.75,63.1Zm-1,1.56h2.06a1,1,0,0,0-.29-.69,1,1,0,0,0-.71-.25,1,1,0,0,0-.71.25A1.15,1.15,0,0,0,125.7,64.66Z"/><path class="cls-2" d="M130.74,63.1a1.53,1.53,0,0,1,1.34.56,2.25,2.25,0,0,1,.35,1.56H129.7a1.19,1.19,0,0,0,.39.67,1.14,1.14,0,0,0,.73.24,1.36,1.36,0,0,0,1-.42l.41.44a1.94,1.94,0,0,1-1.49.61,1.8,1.8,0,0,1-1.34-.51,1.83,1.83,0,0,1,1.32-3.15Zm-1.05,1.56h2.06a.93.93,0,0,0-1-.94,1,1,0,0,0-.7.25A1.09,1.09,0,0,0,129.69,64.66Z"/><path class="cls-2" d="M134,63.12v.72a1.28,1.28,0,0,1,1.25-.74v.74a1.22,1.22,0,0,0-.87.25,1.09,1.09,0,0,0-.38.75v1.89h-.78V63.12Z"/><path class="cls-2" d="M136,61.75a.44.44,0,0,1,.33-.13.41.41,0,0,1,.32.13.51.51,0,0,1,0,.68.41.41,0,0,1-.32.13.44.44,0,0,1-.33-.13.51.51,0,0,1,0-.68Zm.71,5h-.77V63.12h.77Z"/><path class="cls-2" d="M139.94,63.1a1.29,1.29,0,0,1,1,.37,1.38,1.38,0,0,1,.36,1v2.24h-.78v-2a.8.8,0,0,0-.87-.87,1,1,0,0,0-.71.28,1.06,1.06,0,0,0-.31.7v1.92h-.78V63.12h.78v.69A1.35,1.35,0,0,1,139.94,63.1Z"/><path class="cls-2" d="M145.58,63.12v3.26a1.58,1.58,0,0,1-.5,1.23,2,2,0,0,1-1.37.45,2.55,2.55,0,0,1-1.49-.47l.33-.56a1.87,1.87,0,0,0,1.13.39,1.15,1.15,0,0,0,.82-.28.92.92,0,0,0,.31-.74v-.46a1.29,1.29,0,0,1-1.19.61,1.54,1.54,0,0,1-1.18-.48,2,2,0,0,1,0-2.5,1.54,1.54,0,0,1,1.16-.47,1.3,1.3,0,0,1,1.22.61v-.59Zm-1.8,2.82a1,1,0,0,0,.74-.31,1.1,1.1,0,0,0,.29-.8,1.11,1.11,0,0,0-.29-.8,1,1,0,0,0-.74-.3,1,1,0,0,0-.76.3,1.21,1.21,0,0,0-.3.8,1.19,1.19,0,0,0,.3.8A1,1,0,0,0,143.78,65.94Z"/><g class="cls-3"><rect class="cls-4" x="43.2" y="23.84" width="3.13" height="19.74"/><rect class="cls-4" x="46.33" y="23.84" width="0.4" height="19.74"/><rect class="cls-4" x="46.73" y="23.84" width="0.4" height="19.74"/><rect class="cls-5" x="47.13" y="23.84" width="0.4" height="19.74"/><rect class="cls-5" x="47.53" y="23.84" width="0.4" height="19.74"/><rect class="cls-6" x="47.93" y="23.84" width="0.4" height="19.74"/><rect class="cls-7" x="48.33" y="23.84" width="0.4" height="19.74"/><rect class="cls-8" x="48.73" y="23.84" width="0.4" height="19.74"/><rect class="cls-9" x="49.13" y="23.84" width="0.4" height="19.74"/><rect class="cls-10" x="49.53" y="23.84" width="0.4" height="19.74"/><rect class="cls-11" x="49.93" y="23.84" width="0.4" height="19.74"/><rect class="cls-12" x="50.33" y="23.84" width="0.4" height="19.74"/><rect class="cls-13" x="50.73" y="23.84" width="0.4" height="19.74"/><rect class="cls-14" x="51.13" y="23.84" width="0.4" height="19.74"/><rect class="cls-15" x="51.53" y="23.84" width="0.4" height="19.74"/><rect class="cls-16" x="51.93" y="23.84" width="0.4" height="19.74"/><rect class="cls-17" x="52.33" y="23.84" width="0.4" height="19.74"/><rect class="cls-18" x="52.73" y="23.84" width="0.4" height="19.74"/><rect class="cls-19" x="53.13" y="23.84" width="0.4" height="19.74"/><rect class="cls-20" x="53.53" y="23.84" width="0.4" height="19.74"/><rect class="cls-21" x="53.93" y="23.84" width="0.4" height="19.74"/><rect class="cls-22" x="54.33" y="23.84" width="0.4" height="19.74"/><rect class="cls-23" x="54.73" y="23.84" width="0.4" height="19.74"/><rect class="cls-24" x="55.13" y="23.84" width="0.4" height="19.74"/><rect class="cls-25" x="55.53" y="23.84" width="0.4" height="19.74"/><rect class="cls-26" x="55.93" y="23.84" width="0.1" height="19.74"/></g><g class="cls-27"><rect class="cls-24" x="55.32" y="23.84" width="0.21" height="19.74"/><rect class="cls-25" x="55.53" y="23.84" width="0.4" height="19.74"/><rect class="cls-26" x="55.93" y="23.84" width="0.4" height="19.74"/><rect class="cls-28" x="56.33" y="23.84" width="0.4" height="19.74"/><rect class="cls-29" x="56.73" y="23.84" width="0.4" height="19.74"/><rect class="cls-30" x="57.13" y="23.84" width="0.4" height="19.74"/><rect class="cls-31" x="57.53" y="23.84" width="0.4" height="19.74"/><rect class="cls-32" x="57.93" y="23.84" width="0.4" height="19.74"/><rect class="cls-33" x="58.33" y="23.84" width="0.4" height="19.74"/><rect class="cls-34" x="58.73" y="23.84" width="0.4" height="19.74"/><rect class="cls-35" x="59.13" y="23.84" width="0.4" height="19.74"/><rect class="cls-36" x="59.53" y="23.84" width="0.4" height="19.74"/><rect class="cls-37" x="59.93" y="23.84" width="0.4" height="19.74"/><rect class="cls-38" x="60.33" y="23.84" width="0.4" height="19.74"/><rect class="cls-39" x="60.73" y="23.84" width="0.4" height="19.74"/><rect class="cls-40" x="61.13" y="23.84" width="0.4" height="19.74"/><rect class="cls-41" x="61.53" y="23.84" width="0.4" height="19.74"/><rect class="cls-42" x="61.93" y="23.84" width="0.4" height="19.74"/><rect class="cls-43" x="62.33" y="23.84" width="0.4" height="19.74"/><rect class="cls-44" x="62.73" y="23.84" width="0.4" height="19.74"/><rect class="cls-45" x="63.13" y="23.84" width="0.4" height="19.74"/><rect class="cls-46" x="63.53" y="23.84" width="0.4" height="19.74"/><rect class="cls-47" x="63.93" y="23.84" width="0.4" height="19.74"/><rect class="cls-48" x="64.33" y="23.84" width="0.4" height="19.74"/><rect class="cls-49" x="64.73" y="23.84" width="0.4" height="19.74"/><rect class="cls-50" x="65.13" y="23.84" width="0.4" height="19.74"/><rect class="cls-51" x="65.53" y="23.84" width="0.4" height="19.74"/><rect class="cls-52" x="65.93" y="23.84" width="0.4" height="19.74"/><rect class="cls-53" x="66.33" y="23.84" width="0.4" height="19.74"/><rect class="cls-54" x="66.73" y="23.84" width="0.4" height="19.74"/><rect class="cls-55" x="67.13" y="23.84" width="0.4" height="19.74"/><rect class="cls-56" x="67.53" y="23.84" width="0.4" height="19.74"/><rect class="cls-57" x="67.93" y="23.84" width="0.4" height="19.74"/><rect class="cls-58" x="68.33" y="23.84" width="0.4" height="19.74"/><rect class="cls-59" x="68.73" y="23.84" width="0.4" height="19.74"/><rect class="cls-60" x="69.13" y="23.84" width="0.4" height="19.74"/><rect class="cls-61" x="69.53" y="23.84" width="0.4" height="19.74"/><rect class="cls-61" x="69.93" y="23.84" width="0.43" height="19.74"/><rect class="cls-62" x="70.35" y="23.84" width="0.43" height="19.74"/><rect class="cls-63" x="70.78" y="23.84" width="0.43" height="19.74"/><rect class="cls-64" x="71.2" y="23.84" width="0.43" height="19.74"/><rect class="cls-65" x="71.63" y="23.84" width="0.43" height="19.74"/><rect class="cls-66" x="72.05" y="23.84" width="0.43" height="19.74"/><rect class="cls-67" x="72.48" y="23.84" width="0.43" height="19.74"/><rect class="cls-68" x="72.9" y="23.84" width="0.43" height="19.74"/><rect class="cls-69" x="73.33" y="23.84" width="0.43" height="19.74"/><rect class="cls-70" x="73.75" y="23.84" width="0.43" height="19.74"/><rect class="cls-71" x="74.18" y="23.84" width="0.43" height="19.74"/><rect class="cls-72" x="74.6" y="23.84" width="0.43" height="19.74"/><rect class="cls-73" x="75.03" y="23.84" width="0.43" height="19.74"/><rect class="cls-74" x="75.45" y="23.84" width="0.43" height="19.74"/><rect class="cls-75" x="75.88" y="23.84" width="0.43" height="19.74"/><rect class="cls-76" x="76.3" y="23.84" width="0.43" height="19.74"/><rect class="cls-77" x="76.73" y="23.84" width="0.43" height="19.74"/><rect class="cls-78" x="77.15" y="23.84" width="0.43" height="19.74"/><rect class="cls-79" x="77.58" y="23.84" width="0.43" height="19.74"/><rect class="cls-80" x="78" y="23.84" width="0.43" height="19.74"/><rect class="cls-81" x="78.43" y="23.84" width="0.43" height="19.74"/><rect class="cls-82" x="78.85" y="23.84" width="0.43" height="19.74"/><rect class="cls-83" x="79.28" y="23.84" width="0.43" height="19.74"/><rect class="cls-84" x="79.71" y="23.84" width="0.43" height="19.74"/><rect class="cls-85" x="80.13" y="23.84" width="0.43" height="19.74"/><rect class="cls-86" x="80.56" y="23.84" width="0.43" height="19.74"/><rect class="cls-87" x="80.98" y="23.84" width="0.43" height="19.74"/><rect class="cls-88" x="81.41" y="23.84" width="0.43" height="19.74"/><rect class="cls-89" x="81.83" y="23.84" width="0.43" height="19.74"/><rect class="cls-90" x="82.26" y="23.84" width="0.43" height="19.74"/><rect class="cls-91" x="82.68" y="23.84" width="0.43" height="19.74"/><rect class="cls-92" x="83.11" y="23.84" width="0.43" height="19.74"/><rect class="cls-93" x="83.53" y="23.84" width="0.43" height="19.74"/><rect class="cls-94" x="83.96" y="23.84" width="0.32" height="19.74"/></g><g class="cls-95"><rect class="cls-96" x="91.03" y="27.68" width="0.16" height="12.01"/><rect class="cls-97" x="91.19" y="27.68" width="0.43" height="12.01"/><rect class="cls-98" x="91.61" y="27.68" width="0.43" height="12.01"/><rect class="cls-99" x="92.04" y="27.68" width="0.43" height="12.01"/><rect class="cls-100" x="92.46" y="27.68" width="0.43" height="12.01"/><rect class="cls-101" x="92.89" y="27.68" width="0.43" height="12.01"/><rect class="cls-102" x="93.31" y="27.68" width="0.43" height="12.01"/><rect class="cls-103" x="93.74" y="27.68" width="0.43" height="12.01"/><rect class="cls-104" x="94.16" y="27.68" width="0.43" height="12.01"/><rect class="cls-105" x="94.59" y="27.68" width="0.43" height="12.01"/><rect class="cls-106" x="95.01" y="27.68" width="0.43" height="12.01"/><rect class="cls-107" x="95.44" y="27.68" width="0.43" height="12.01"/><rect class="cls-108" x="95.86" y="27.68" width="0.43" height="12.01"/><rect class="cls-108" x="96.29" y="27.68" width="3.8" height="12.01"/><rect class="cls-109" x="86.62" y="23.84" width="0.31" height="19.74"/><rect class="cls-110" x="86.93" y="23.84" width="0.43" height="19.74"/><rect class="cls-111" x="87.36" y="23.84" width="0.43" height="19.74"/><rect class="cls-112" x="87.78" y="23.84" width="0.43" height="19.74"/><rect class="cls-113" x="88.21" y="23.84" width="0.43" height="19.74"/><rect class="cls-114" x="88.63" y="23.84" width="0.43" height="19.74"/><rect class="cls-115" x="89.06" y="23.84" width="0.43" height="19.74"/><rect class="cls-116" x="89.48" y="23.84" width="0.43" height="19.74"/><rect class="cls-117" x="89.91" y="23.84" width="0.43" height="19.74"/><rect class="cls-118" x="90.34" y="23.84" width="0.43" height="19.74"/><rect class="cls-96" x="90.76" y="23.84" width="0.43" height="19.74"/><rect class="cls-97" x="91.19" y="23.84" width="0.43" height="19.74"/><rect class="cls-98" x="91.61" y="23.84" width="0.43" height="19.74"/><rect class="cls-99" x="92.04" y="23.84" width="0.43" height="19.74"/><rect class="cls-100" x="92.46" y="23.84" width="0.43" height="19.74"/><rect class="cls-101" x="92.89" y="23.84" width="0.43" height="19.74"/><rect class="cls-102" x="93.31" y="23.84" width="0.43" height="19.74"/><rect class="cls-103" x="93.74" y="23.84" width="0.43" height="19.74"/><rect class="cls-104" x="94.16" y="23.84" width="0.43" height="19.74"/><rect class="cls-105" x="94.59" y="23.84" width="0.43" height="19.74"/><rect class="cls-106" x="95.01" y="23.84" width="0.43" height="19.74"/><rect class="cls-107" x="95.44" y="23.84" width="0.43" height="19.74"/><rect class="cls-108" x="95.86" y="23.84" width="0.43" height="19.74"/><rect class="cls-108" x="96.29" y="23.84" width="8.24" height="19.74"/></g><path class="cls-119" d="M43.2,43.58V23.84h4.41V39.66H56v3.92Z"/><path class="cls-120" d="M64,35.19,67.5,23.84h4.6l3.47,11.35L79.5,23.84h4.77L77.38,43.58H74.11L69.78,29.85,65.49,43.58H62.21L55.32,23.84H60.1Z"/><path class="cls-121" d="M101.7,26.42a9.23,9.23,0,0,1,2.83,7.19,9.7,9.7,0,0,1-2.76,7.29q-2.74,2.68-8.4,2.68H86.62V23.84h7Q98.88,23.84,101.7,26.42ZM98.47,38.16a5.82,5.82,0,0,0,1.62-4.44,5.92,5.92,0,0,0-1.62-4.47,6.93,6.93,0,0,0-5-1.57H91v12h2.79A6.51,6.51,0,0,0,98.47,38.16Z"/><path class="cls-4" d="M6.61,50.49H8.84v6.14h3.78V58.4h-6Z"/><path class="cls-4" d="M18.43,52.87a2.67,2.67,0,0,1,.8,2.13v3.4h-2v-.79a1.85,1.85,0,0,1-1.81.89,2.76,2.76,0,0,1-1.23-.25,1.71,1.71,0,0,1-1-1.64,1.58,1.58,0,0,1,.66-1.35,3.56,3.56,0,0,1,2.06-.48h1.22c0-.64-.47-1-1.3-1a3.11,3.11,0,0,0-.89.14,2.65,2.65,0,0,0-.77.39l-.72-1.45a3.84,3.84,0,0,1,1.23-.53,6.18,6.18,0,0,1,1.47-.19A3.5,3.5,0,0,1,18.43,52.87ZM16.67,57a1,1,0,0,0,.41-.53V55.9h-.93c-.62,0-.93.21-.93.62a.57.57,0,0,0,.21.46.94.94,0,0,0,.59.17A1.08,1.08,0,0,0,16.67,57Z"/><path class="cls-4" d="M26.41,52.85a2.76,2.76,0,0,1,.69,2v3.5H25V55.25c0-.84-.34-1.26-1-1.26a1.17,1.17,0,0,0-.89.36,1.6,1.6,0,0,0-.33,1.09v3H20.58V52.28h2.05v.66a2.4,2.4,0,0,1,.86-.57,2.92,2.92,0,0,1,1.08-.2A2.55,2.55,0,0,1,26.41,52.85Z"/><path class="cls-4" d="M35.05,50V58.4H33v-.61a2.24,2.24,0,0,1-1.8.71,3,3,0,0,1-1.52-.39A2.84,2.84,0,0,1,28.59,57a3.69,3.69,0,0,1,0-3.34,2.75,2.75,0,0,1,1.09-1.1,3,3,0,0,1,1.52-.39,2.25,2.25,0,0,1,1.7.64V50Zm-2.48,6.39a1.53,1.53,0,0,0,.36-1.08,1.55,1.55,0,0,0-.35-1.07,1.32,1.32,0,0,0-1.85,0,1.51,1.51,0,0,0-.36,1.07,1.53,1.53,0,0,0,.36,1.08,1.21,1.21,0,0,0,.93.39A1.18,1.18,0,0,0,32.57,56.41Z"/><path class="cls-4" d="M38.25,56.31a1.18,1.18,0,0,1,.37.91,2.25,2.25,0,0,1-.07.52,5.3,5.3,0,0,1-.31.78l-.71,1.65H36.19l.53-1.84a1.09,1.09,0,0,1-.49-.43,1.28,1.28,0,0,1-.18-.68,1.21,1.21,0,0,1,.36-.91,1.29,1.29,0,0,1,.93-.35A1.26,1.26,0,0,1,38.25,56.31Z"/><path class="cls-4" d="M55.42,50.49,52.85,58.4H50.46l-1.52-4.81L47.36,58.4H45L42.4,50.49h2.31l1.59,5,1.67-5H50l1.59,5.1,1.66-5.1Z"/><path class="cls-4" d="M60.6,52.87A2.65,2.65,0,0,1,61.41,55v3.4h-2v-.79a1.86,1.86,0,0,1-1.81.89,2.73,2.73,0,0,1-1.23-.25,1.81,1.81,0,0,1-.79-.67,1.74,1.74,0,0,1-.26-1A1.58,1.58,0,0,1,56,55.26,3.56,3.56,0,0,1,58,54.78h1.22c0-.64-.47-1-1.3-1a3.11,3.11,0,0,0-.89.14,2.65,2.65,0,0,0-.77.39l-.72-1.45a3.75,3.75,0,0,1,1.23-.53,6.18,6.18,0,0,1,1.47-.19A3.46,3.46,0,0,1,60.6,52.87ZM58.85,57a1,1,0,0,0,.41-.53V55.9h-.93c-.62,0-.94.21-.94.62a.58.58,0,0,0,.22.46.94.94,0,0,0,.59.17A1.11,1.11,0,0,0,58.85,57Z"/><path class="cls-4" d="M67,58.15a2.22,2.22,0,0,1-.66.26,3.7,3.7,0,0,1-.83.09,2.62,2.62,0,0,1-1.85-.59A2.24,2.24,0,0,1,63,56.16v-2h-.89V52.5H63V50.91h2.15V52.5h1.4v1.61h-1.4v2a.69.69,0,0,0,.17.51.6.6,0,0,0,.47.19,1.14,1.14,0,0,0,.66-.19Z"/><path class="cls-4" d="M73.86,55.88H69.41a1.23,1.23,0,0,0,.52.73,1.76,1.76,0,0,0,1,.25,2.16,2.16,0,0,0,.76-.12,2.13,2.13,0,0,0,.65-.41l1.13,1.18a3.35,3.35,0,0,1-2.61,1A4.08,4.08,0,0,1,69,58.09,3,3,0,0,1,67.69,57a3.27,3.27,0,0,1,0-3.26,3,3,0,0,1,1.21-1.12,3.61,3.61,0,0,1,1.72-.41,3.69,3.69,0,0,1,1.67.38,3,3,0,0,1,1.18,1.1,3.21,3.21,0,0,1,.43,1.7S73.88,55.54,73.86,55.88ZM69.79,54a1.3,1.3,0,0,0-.42.77h2.51a1.3,1.3,0,0,0-.42-.77,1.39,1.39,0,0,0-1.67,0Z"/><path class="cls-4" d="M77.78,52.38A3.23,3.23,0,0,1,79,52.17v1.94a3.29,3.29,0,0,0-.49,0A1.35,1.35,0,0,0,77,55.59V58.4H74.88V52.28h2.05V53A2,2,0,0,1,77.78,52.38Z"/><path class="cls-4" d="M88.12,52.87a2.67,2.67,0,0,1,.8,2.13v3.4h-2v-.79a1.85,1.85,0,0,1-1.81.89,2.76,2.76,0,0,1-1.23-.25,1.71,1.71,0,0,1-1-1.64,1.58,1.58,0,0,1,.66-1.35,3.56,3.56,0,0,1,2.06-.48h1.22c0-.64-.47-1-1.3-1a3.11,3.11,0,0,0-.89.14,2.65,2.65,0,0,0-.77.39l-.72-1.45a3.84,3.84,0,0,1,1.23-.53,6.18,6.18,0,0,1,1.47-.19A3.5,3.5,0,0,1,88.12,52.87ZM86.36,57a1,1,0,0,0,.41-.53V55.9h-.93c-.62,0-.93.21-.93.62a.57.57,0,0,0,.21.46.94.94,0,0,0,.59.17A1.08,1.08,0,0,0,86.36,57Z"/><path class="cls-4" d="M96.1,52.85a2.76,2.76,0,0,1,.69,2v3.5H94.65V55.25c0-.84-.34-1.26-1-1.26a1.17,1.17,0,0,0-.89.36,1.6,1.6,0,0,0-.33,1.09v3H90.27V52.28h2v.66a2.4,2.4,0,0,1,.86-.57,2.92,2.92,0,0,1,1.08-.2A2.53,2.53,0,0,1,96.1,52.85Z"/><path class="cls-4" d="M104.74,50V58.4h-2v-.61a2.24,2.24,0,0,1-1.8.71,3,3,0,0,1-1.52-.39A2.84,2.84,0,0,1,98.28,57a3.69,3.69,0,0,1,0-3.34,2.75,2.75,0,0,1,1.09-1.1,3,3,0,0,1,1.52-.39,2.23,2.23,0,0,1,1.7.64V50Zm-2.48,6.39a1.53,1.53,0,0,0,.36-1.08,1.55,1.55,0,0,0-.35-1.07,1.32,1.32,0,0,0-1.85,0,1.51,1.51,0,0,0-.36,1.07,1.53,1.53,0,0,0,.36,1.08,1.21,1.21,0,0,0,.93.39A1.18,1.18,0,0,0,102.26,56.41Z"/><path class="cls-4" d="M109.5,50.49h3.74a5.16,5.16,0,0,1,2.31.49,3.66,3.66,0,0,1,1.56,1.37,4.27,4.27,0,0,1,0,4.19,3.66,3.66,0,0,1-1.56,1.37,5.16,5.16,0,0,1-2.31.49H109.5Zm3.65,6.12a2.32,2.32,0,0,0,1.64-.57,2.39,2.39,0,0,0,0-3.19,2.32,2.32,0,0,0-1.64-.57h-1.41v4.33Z"/><path class="cls-4" d="M123.67,52.87a2.64,2.64,0,0,1,.8,2.13v3.4h-2v-.79a1.83,1.83,0,0,1-1.8.89,2.73,2.73,0,0,1-1.23-.25,1.81,1.81,0,0,1-.79-.67,1.75,1.75,0,0,1-.27-1,1.59,1.59,0,0,1,.67-1.35,3.56,3.56,0,0,1,2.06-.48h1.22c0-.64-.47-1-1.3-1a3.06,3.06,0,0,0-.89.14,2.65,2.65,0,0,0-.77.39l-.73-1.45a3.9,3.9,0,0,1,1.24-.53,6.18,6.18,0,0,1,1.47-.19A3.46,3.46,0,0,1,123.67,52.87ZM121.92,57a1,1,0,0,0,.41-.53V55.9h-.93c-.62,0-.94.21-.94.62a.58.58,0,0,0,.22.46.94.94,0,0,0,.59.17A1.13,1.13,0,0,0,121.92,57Z"/><path class="cls-4" d="M135.61,52.85a2.8,2.8,0,0,1,.67,2v3.5h-2.14V55.25a1.52,1.52,0,0,0-.25-1,.81.81,0,0,0-.68-.31,1,1,0,0,0-.78.34,1.53,1.53,0,0,0-.29,1v3H130V55.25q0-1.26-.93-1.26a1,1,0,0,0-.79.34,1.58,1.58,0,0,0-.29,1v3h-2.15V52.28h2v.64a2,2,0,0,1,.8-.56,2.9,2.9,0,0,1,1-.19,2.66,2.66,0,0,1,1.15.24,2,2,0,0,1,.82.72,2.5,2.5,0,0,1,.92-.71,3,3,0,0,1,1.21-.25A2.44,2.44,0,0,1,135.61,52.85Z"/><path class="cls-4" d="M138.35,58.33a4,4,0,0,1-1.2-.46l.65-1.47a3.6,3.6,0,0,0,1,.41,4.52,4.52,0,0,0,1.14.15,1.85,1.85,0,0,0,.74-.1.33.33,0,0,0,.22-.31c0-.14-.09-.23-.26-.29a5.9,5.9,0,0,0-.85-.17,8.14,8.14,0,0,1-1.24-.23,2,2,0,0,1-.89-.54,1.57,1.57,0,0,1-.37-1.11,1.66,1.66,0,0,1,.35-1.05,2.34,2.34,0,0,1,1-.72,4.3,4.3,0,0,1,1.61-.27,6.58,6.58,0,0,1,1.32.14,4,4,0,0,1,1.1.38L142,54.15a3.57,3.57,0,0,0-1.76-.45,1.76,1.76,0,0,0-.75.12.36.36,0,0,0-.23.31c0,.14.08.24.26.3a7.09,7.09,0,0,0,.86.17,12.13,12.13,0,0,1,1.25.26,1.91,1.91,0,0,1,.86.54,1.5,1.5,0,0,1,.37,1.09,1.61,1.61,0,0,1-.35,1,2.22,2.22,0,0,1-1,.72,4.76,4.76,0,0,1-1.65.26A7,7,0,0,1,138.35,58.33Z"/></svg>