<svg id="Capa_1" data-name="Capa 1" xmlns="http://www.w3.org/2000/svg" viewBox="0 0 512 512"><defs><style>.cls-1{fill:#006ec2;}</style></defs><path class="cls-1" d="M460.38,150.71c.32,4.55.32,9.1.32,13.64,0,138.71-105.58,298.54-298.54,298.54A296.54,296.54,0,0,1,1,415.79a217.79,217.79,0,0,0,25.34,1.3,210.14,210.14,0,0,0,130.26-44.83,105.11,105.11,0,0,1-98.1-72.77,132.7,132.7,0,0,0,19.81,1.62A111.09,111.09,0,0,0,106,297.54a104.93,104.93,0,0,1-84.13-103v-1.3a105.64,105.64,0,0,0,47.42,13.32A105.09,105.09,0,0,1,36.77,66.25a298.25,298.25,0,0,0,216.35,109.8,118.78,118.78,0,0,1-2.6-24A105,105,0,0,1,432.11,80.22a206.58,206.58,0,0,0,66.6-25.34,104.67,104.67,0,0,1-46.13,57.82A210.3,210.3,0,0,0,513,96.46a225.72,225.72,0,0,1-52.62,54.25Z"/></svg>